HIERARCHY
ROOT Hips
{
	OFFSET 0.00000 0.00000 0.00000
	CHANNELS 6 Xposition Yposition Zposition Yrotation Zrotation Xrotation 
	JOINT Lumbar
	{
		OFFSET 0 0 0
		CHANNELS 3 Zrotation Xrotation Yrotation
		JOINT Neck
		{
			OFFSET 0.00 0.2701 0.00
			CHANNELS 3 Zrotation Xrotation Yrotation
			End Site
			{
				OFFSET 0.00 0.1379 0.00
			}
		}
		JOINT RightShoulder
		{
			OFFSET 0.0119 0.2289 0.1181
			CHANNELS 3 Zrotation Xrotation Yrotation
			JOINT RightElbow
			{
				OFFSET 0.00 -0.1475 0.00
				CHANNELS 2 Zrotation Yrotation
				JOINT RightWrist
				{
					OFFSET 0.00 -0.1605 0.00
					CHANNELS 2 Zrotation Xrotation
					End Site
					{
						OFFSET 0.0040 -0.1068 0.0006
					}
				}
			}
		}
		JOINT LeftShoulder
		{
			OFFSET 0.0119 0.2289 -0.1181
			CHANNELS 3 Zrotation Xrotation Yrotation
			JOINT LeftElbow
			{
				OFFSET 0.00 -0.1475 0.00
				CHANNELS 2 Zrotation Yrotation
				JOINT LeftWrist
				{
					OFFSET 0.00 -0.1605 0.00
					CHANNELS 2 Zrotation Xrotation
					End Site
					{
						OFFSET 0.0040 -0.1068 -0.0006
					}
				}
			}
		}
	}
	JOINT RightHip
	{
		OFFSET 0.0316 -0.0424 0.0458
		CHANNELS 3 Zrotation Xrotation Yrotation
		JOINT RightKnee
		{
			OFFSET 0.00 -0.2438 0.00
			CHANNELS 1 Zrotation
			JOINT RightAnkle
			{
				OFFSET 0.00 -0.2449 0.00
				CHANNELS 3 Zrotation Xrotation Yrotation
				End Site
				{
					OFFSET 0.1237 -0.0542 0.0051
				}
			}
		}
	}
	JOINT LeftHip
	{
		OFFSET 0.0316 -0.0424 -0.0458
		CHANNELS 3 Zrotation Xrotation Yrotation
		JOINT LeftKnee
		{
			OFFSET 0.00 -0.2438 0.00
			CHANNELS 1 Zrotation
			JOINT LeftAnkle
			{
				OFFSET 0.00 -0.2449 0.00
				CHANNELS 3 Zrotation Xrotation Yrotation
				End Site
				{
					OFFSET 0.1237 -0.0542 -0.0051
				}
			}
		}
	}
}
MOTION
Frames: 19
Frame Time: 0.02
0.08716 -0.27989 -0.00663 40.74292 -20.41499 1.47274 37.94362 4.02364 4.42197 0.79981 -13.35861 -0.82978 53.40983 -0.28489 32.16266 86.36157 98.66615 -32.4291 -5.83918 117.41454 7.86678 -56.8515 35.38816 -31.36715 50.70639 9.21348 30.68354 -12.85067 -1.70722 -123.86581 -5.28647 -2.10894 -1.64477 110.97653 1.97788 2.52616 -139.7818 -5.19493 2.65661 1.93702
0.08928 -0.27925 -0.00639 40.60918 -20.03877 1.73013 38.35694 3.98577 4.62 0.8628 -13.35953 -0.82978 52.4703 0.06899 32.28578 86.83758 99.75768 -33.288 -5.92438 116.64701 8.4897 -56.93641 36.4784 -31.51093 50.51901 9.1782 29.97734 -12.81652 -1.62688 -123.4371 -5.29567 -2.08846 -1.63269 110.37317 2.10034 2.17997 -139.97342 -5.20353 2.62135 1.919
0.09141 -0.27852 -0.00629 40.42191 -19.68869 2.02724 38.8426 3.92968 4.82967 0.98827 -13.34566 -0.82978 51.32428 0.49613 32.42108 87.65903 101.70838 -34.75696 -6.08183 115.93378 9.30418 -57.35629 37.87483 -31.23914 50.4066 9.22862 29.28746 -12.79859 -1.44168 -122.97064 -5.30734 -2.06238 -1.6174 109.78019 2.26243 1.85711 -140.17078 -5.21399 2.58094 1.89736
0.09353 -0.27784 -0.00614 40.26012 -19.3243 2.30373 39.2963 3.88534 5.02695 1.0749 -13.33936 -0.82979 50.27553 0.88156 32.56762 88.34588 103.178 -35.87996 -6.19918 115.19259 10.04325 -57.61176 39.15743 -31.17009 50.23433 9.23892 28.58535 -12.7736 -1.31142 -122.52181 -5.31739 -2.04002 -1.60438 109.18015 2.40904 1.52861 -140.36736 -5.2238 2.54267 1.87734
0.09568 -0.27711 -0.00593 40.09226 -18.96718 2.59208 39.74784 3.82703 5.25625 1.2039 -13.32915 -0.82979 49.20764 1.30493 32.64489 88.93677 105.01232 -37.28225 -6.34554 114.45819 10.73735 -57.90925 40.34203 -31.05269 50.16555 9.25103 27.89908 -12.75043 -1.15057 -122.06873 -5.32973 -2.01241 -1.58782 108.58475 2.54542 1.18145 -140.55745 -5.23284 2.50526 1.85752
0.09777 -0.27646 -0.00587 39.92507 -18.60299 2.86417 40.22075 3.79322 5.41988 1.26067 -13.32338 -0.82979 48.13407 1.66462 32.86882 89.80912 106.29844 -38.25208 -6.4493 113.72366 11.56578 -58.19508 41.79807 -30.94534 49.89908 9.27906 27.18602 -12.72581 -1.0287 -121.6162 -5.3378 -1.99446 -1.57786 107.9844 2.7119 0.87778 -140.76141 -5.24384 2.46499 1.83646
0.09973 -0.27607 -0.00615 39.76921 -18.20386 3.08921 40.73012 3.83165 5.41144 1.09655 -13.33757 -0.82979 47.07423 1.84479 33.49226 91.38651 105.85914 -37.87832 -6.41777 112.99876 12.75942 -58.46313 43.95118 -30.80815 49.09713 9.35477 26.38763 -12.69705 -1.03711 -121.17726 -5.33355 -2.00534 -1.58755 107.3652 2.95732 0.68895 -141.00895 -5.26063 2.41618 1.81193
0.10163 -0.27576 -0.00656 39.61661 -17.79857 3.29513 41.25873 3.89523 5.33442 0.85899 -13.35608 -0.8298 46.01997 1.95588 34.26196 93.23286 104.84478 -37.05193 -6.34143 112.27114 14.07465 -58.69675 46.3602 -30.71393 48.09221 9.44081 25.56373 -12.66524 -1.08878 -120.74021 -5.32488 -2.02607 -1.60391 106.74201 3.23065 0.54265 -141.26895 -5.2792 2.36499 1.7864
0.10355 -0.27542 -0.0069 39.46514 -17.40245 3.50474 41.78188 3.9471 5.2803 0.6591 -13.37004 -0.8298 44.97759 2.08863 34.9675 94.94894 104.09259 -36.4317 -6.28542 111.5278 15.30624 -58.88 48.63832 -30.71091 47.15882 9.50524 24.75677 -12.63178 -1.12266 -120.30055 -5.31813 -2.04181 -1.6168 106.12295 3.48757 0.37631 -141.51869 -5.29638 2.31618 1.76191
0.10551 -0.27505 -0.00727 39.30109 -16.9808 3.73661 42.29524 3.99951 5.26017 0.4428 -13.3944 -0.8298 43.86776 2.26355 35.66838 96.71284 103.35195 -35.82194 -6.2307 110.84811 16.6613 -59.33557 50.99521 -30.25832 46.30363 9.63936 23.92739 -12.61141 -1.14533 -119.86606 -5.31178 -2.05941 -1.63141 105.49382 3.76155 0.21399 -141.78783 -5.316 2.26184 1.73487
0.10736 -0.27475 -0.00762 39.16431 -16.60992 3.91734 42.83069 4.05701 5.15446 0.243 -13.39833 -0.82981 42.9016 2.33514 36.40771 98.43419 102.45788 -35.08585 -6.16341 110.04666 17.78941 -59.23374 53.23688 -30.71756 45.25111 9.63548 23.13887 -12.56325 -1.20256 -119.42281 -5.30358 -2.07569 -1.64411 104.88528 4.00615 0.05289 -142.01971 -5.33103 2.21836 1.71287
0.10895 -0.27459 -0.0079 39.10578 -16.38619 3.95887 43.4387 4.12258 4.81491 0.10139 -13.34475 -0.82981 42.33975 2.12124 37.26783 99.98963 101.11506 -34.01333 -6.0569 108.80251 18.22431 -57.40185 55.16285 -34.04273 43.57364 9.1959 22.4661 -12.4353 -1.34901 -118.94641 -5.29074 -2.0848 -1.64937 104.32908 4.16226 -0.11358 -142.14326 -5.33217 2.20682 1.70567
0.11042 -0.27449 -0.00814 39.07418 -16.21278 3.94991 44.06496 4.19247 4.3942 -0.02043 -13.27057 -0.82981 41.92206 1.80815 38.15248 101.48727 99.66077 -32.8427 -5.94147 107.45328 18.43072 -55.0407 56.94973 -38.22856 41.72587 8.62496 21.83606 -12.28013 -1.52847 -118.46299 -5.27628 -2.09244 -1.6526 103.79483 4.28771 -0.28059 -142.22926 -5.32877 2.20608 1.70347
0.11193 -0.27435 -0.0084 39.02798 -16.01246 3.96561 44.67174 4.26035 4.01997 -0.14812 -13.20588 -0.82981 41.43308 1.55182 38.99231 102.99916 98.36643 -31.78087 -5.84035 106.22526 18.76712 -53.05736 58.7568 -41.77529 40.04405 8.14974 21.1883 -12.13981 -1.69045 -117.98847 -5.26295 -2.10152 -1.65715 103.25394 4.42741 -0.44875 -142.33403 -5.32798 2.19955 1.69856
0.11349 -0.27423 -0.00867 38.99164 -15.82844 3.97336 45.32614 4.32924 3.60288 -0.29144 -13.14068 -0.82981 40.96698 1.24548 39.9779 104.57436 96.60578 -30.44044 -5.69581 104.69697 19.00481 -50.51427 60.75705 -46.33144 37.99195 7.52875 20.53166 -11.98884 -1.86425 -117.48962 -5.24781 -2.10778 -1.66027 102.69835 4.56696 -0.61005 -142.43218 -5.32499 2.19665 1.69542
0.11492 -0.2741 -0.0089 38.94139 -15.62322 3.986 45.88582 4.39679 3.25662 -0.39665 -13.07174 -0.82982 40.48938 1.01851 40.66569 105.99671 95.77895 -29.65292 -5.63839 103.75675 19.38302 -48.98567 62.31548 -49.03754 36.65997 7.17265 19.90503 -11.85373 -2.02082 -117.04011 -5.23609 -2.11933 -1.66578 102.17925 4.69892 -0.78564 -142.53483 -5.32543 2.18881 1.68983
0.11603 -0.27397 -0.009 38.84405 -15.34075 4.02371 46.17547 4.45905 3.12666 -0.40035 -12.99627 -0.82982 39.92777 1.05352 40.5081 107.04024 97.7196 -30.50405 -5.83941 104.57519 20.28422 -50.61656 62.71173 -45.99889 37.47648 7.64473 19.34222 -11.76826 -2.12086 -116.72582 -5.2345 -2.14663 -1.67849 101.75045 4.81918 -1.00665 -142.66092 -5.33661 2.16431 1.67599
0.11701 -0.27384 -0.00906 38.7322 -15.03642 4.06816 46.3696 4.51983 3.07091 -0.36616 -12.91793 -0.82982 39.35251 1.16871 40.05246 107.9247 100.5779 -31.90177 -6.12584 105.97033 21.32005 -53.24742 62.66229 -41.14185 39.00455 8.37672 18.80989 -11.69987 -2.20237 -116.46202 -5.23637 -2.17911 -1.69362 101.35862 4.93229 -1.24112 -142.79243 -5.35118 2.13453 1.65954
0.11805 -0.2737 -0.00914 38.62835 -14.74633 4.1103 46.61022 4.58147 2.9811 -0.34981 -12.84177 -0.82982 38.795 1.23541 39.74363 108.86197 102.91117 -32.99266 -6.36293 107.02783 22.24087 -55.26648 62.80005 -37.40392 40.12764 8.94614 18.26932 -11.62419 -2.29272 -116.17679 -5.23648 -2.20864 -1.70752 100.95317 5.04746 -1.46555 -142.92017 -5.36434 2.10741 1.64448
